<svg xmlns="http://www.w3.org/2000/svg">
<symbol viewBox="0 0 60 60" id="icon-link">
            <path d="M30.2 5h-.2l-19.7 2.1v36.2l19.7 11.7 19.7-11.7v-36.2l-19.5-2.1zm17 36.8l-17.2 10.2-17.2-10.2v-14.8l17.1 10.2v1.8l-11.7-7v1.8l11.8 7.1v1.9l-11.8-7v1.8l11.8 7 11.9-7.1v-7.6l5.3-3.2v15.1zm-.1-17l-4.7 2.8-2.2 1.3-10.3-6.1v1.8l8.8 5.3h-.1l-.2.1-1.3.7-7.3-4.3v1.8l5.8 3.4-1.4.9-4.3-2.6v1.8l2.9 1.7-2.9 1.7-17-10.1 17-10.2 17.2 10zm.1-1.8l-17.3-10.2-17.1 10.2v-13.6l17.2-1.8 17.2 1.8v13.6z"/>
    </symbol> 
 <symbol viewBox="0 0 39 37" id="icon-house">
<path d="M15.4015 33.2194H23.7549V21.0613H15.4015V33.2194ZM22.2408 31.7441H16.9155V22.5365H22.1886V31.7441H22.2408Z" fill="#81B3D2"/>
<path d="M37.9036 20.0431L39 18.9748L33.8313 13.9386V0.203483H26.6265V6.91843L19.4739 0L0 19.0257L1.09639 20.094L5.16867 16.126V35.3552H3.13253V36.8305H36.494V35.3552H33.8313V16.0752L37.9036 20.0431ZM28.1406 1.72961H32.2651V12.4633L28.1406 8.44455V1.72961ZM32.3173 35.3043H6.73494V14.5999L19.4739 2.13657L32.2651 14.5999V35.3043H32.3173Z" fill="#81B3D2"/>
<path d="M15.5582 13.8369C15.5582 16.0243 17.3855 17.8048 19.5783 17.8048C21.8233 17.8048 23.6506 16.0243 23.6506 13.8369C23.6506 11.6494 21.8233 9.9198 19.5783 9.9198C17.3333 9.9198 15.5582 11.6494 15.5582 13.8369ZM19.5783 11.2933C20.9879 11.2933 22.1888 12.4125 22.1888 13.8369C22.1888 15.2104 21.0402 16.3804 19.5783 16.3804C18.1687 16.3804 16.9679 15.2612 16.9679 13.8369C16.9679 12.4633 18.1687 11.2933 19.5783 11.2933Z" fill="#81B3D2"/>
<path d="M10.3895 21.0613H8.82324V23.0452H10.3895V21.0613Z" fill="#81B3D2"/>
<path d="M13.4698 21.0613H11.9036V23.0452H13.4698V21.0613Z" fill="#81B3D2"/>
<path d="M10.3895 24.1128H8.82324V26.0968H10.3895V24.1128Z" fill="#81B3D2"/>
<path d="M13.4698 24.1128H11.9036V26.0968H13.4698V24.1128Z" fill="#81B3D2"/>
<path d="M27.0443 21.0613H25.478V23.0452H27.0443V21.0613Z" fill="#81B3D2"/>
<path d="M30.1769 21.0613H28.6106V23.0452H30.1769V21.0613Z" fill="#81B3D2"/>
<path d="M27.0443 24.1128H25.478V26.0968H27.0443V24.1128Z" fill="#81B3D2"/>
<path d="M30.1769 24.1128H28.6106V26.0968H30.1769V24.1128Z" fill="#81B3D2"/>
</symbol>
<symbol viewBox="0 0 32 38" id="icon-gift">
<path d="M30.5778 11.2058H30.527H18.1841C25.0921 7.76156 25.6508 5.58358 25.3968 4.36796C24.8381 2.39259 22.5524 0.873068 20.419 1.68348C17.6254 2.74714 16.8635 6.9005 16.1016 9.88889C15.1365 6.84985 14.2222 3.0004 12.0381 1.02502C11.4286 0.467863 10.5143 -0.0892942 9.14286 0.0120071C7.11111 0.21461 4.21587 2.69649 5.43492 5.48228C6.55238 8.16676 10.2603 9.88888 12.7492 11.2565H1.42222C0.609524 11.2565 0 11.9149 0 12.6747V18.3475C0 19.158 0.660317 19.7658 1.42222 19.7658H1.5746V38H30.527V19.7658H30.5778C31.3905 19.7658 32 19.1073 32 18.3475V12.6747C32 11.8643 31.3397 11.2058 30.5778 11.2058ZM21.2317 2.94975C22.2984 2.79779 23.7206 3.6082 23.873 4.57057C24.0762 5.93813 22.1968 7.2044 21.3333 7.76156C20.0635 8.62262 18.8444 9.07847 17.6762 9.78758C18.0825 7.91351 18.946 3.25365 21.2317 2.94975ZM9.75238 7.91351C8.63492 7.15375 6.50159 5.68488 6.55238 4.01341C6.60317 2.18999 9.44762 0.721116 10.9714 2.08868C12.9016 3.76016 13.8159 7.66026 14.527 10.3954C12.9016 9.58498 11.3778 8.97717 9.75238 7.91351ZM12.7492 36.4805H3.04762V19.7658H12.7492V36.4805ZM12.7492 18.2462H1.52381V12.7253H12.7492V18.2462ZM17.8286 36.4805H14.2222V12.7253H17.8286V36.4805ZM29.0032 36.4805H19.3524V19.7658H29.054V36.4805H29.0032ZM30.4762 18.2462H19.3524V12.7253H30.4762V18.2462Z" fill="#81B3D2"/>
</symbol>
<symbol viewBox="0 0 40 35" id="icon-burger">
<path d="M37.7428 23.3004H2.25722C0.997375 23.3004 0 24.3135 0 25.4785V27.2514C0 28.4164 0.997375 29.3788 2.25722 29.3788H2.78215V29.8853C2.78215 32.6712 5.14436 34.9 7.979 34.9H32.021C34.9081 34.9 37.2178 32.6206 37.2178 29.8853V29.3788H37.7428C38.9501 29.3788 40 28.4164 40 27.2007V25.4278C40 24.3135 39.0026 23.3004 37.7428 23.3004ZM35.6955 29.8853C35.6955 31.8101 34.0682 33.3804 32.0735 33.3804H7.92651C5.93176 33.3804 4.30446 31.8101 4.30446 29.8853V29.3788H35.6955V29.8853ZM38.4252 27.2007C38.4252 27.5553 38.1102 27.8592 37.7428 27.8592H2.25722C1.88976 27.8592 1.5748 27.5553 1.5748 27.2007V25.4278C1.5748 25.1239 1.88976 24.82 2.25722 24.82H37.7953C38.1627 24.82 38.4777 25.1239 38.4777 25.4785V27.2007H38.4252Z" fill="#81B3D2"/>
<path d="M8.50395 19.1973L11.3386 21.2234L14.2257 19.1973L17.1129 21.2234L20 19.1973L22.8347 21.2234L25.7218 19.1973L28.6089 21.2234L31.4961 19.1973L34.3832 21.2234L37.6903 18.8427L36.7979 17.627L34.3832 19.2986L31.4961 17.2725L28.6089 19.2986L25.7218 17.2725L22.8347 19.2986L20 17.2725L17.1129 19.2986L14.2257 17.2725L11.3386 19.2986L8.50395 17.2725L5.61682 19.2986L3.20212 17.627L2.25723 18.8427L5.61682 21.2234L8.50395 19.1973Z" fill="#81B3D2"/>
<path d="M37.2179 15.7531C37.2179 15.4492 37.2704 14.4361 37.2179 14.2335C36.8504 6.33164 29.2913 0 20 0C10.7087 0 3.09712 6.33164 2.72967 14.2335C2.72967 14.4361 2.72967 15.4492 2.72967 15.7531H37.2179ZM20 1.51959C28.399 1.51959 35.3281 7.19274 35.6431 14.2335H4.30447C4.67193 7.19274 11.6011 1.51959 20 1.51959Z" fill="#81B3D2"/>
<path d="M20 8.61109C20.5798 8.61109 21.0499 8.15752 21.0499 7.59802C21.0499 7.03852 20.5798 6.58496 20 6.58496C19.4202 6.58496 18.9501 7.03852 18.9501 7.59802C18.9501 8.15752 19.4202 8.61109 20 8.61109Z" fill="#81B3D2"/>
<path d="M15.8005 6.12866C16.3803 6.12866 16.8504 5.6751 16.8504 5.1156C16.8504 4.5561 16.3803 4.10254 15.8005 4.10254C15.2207 4.10254 14.7506 4.5561 14.7506 5.1156C14.7506 5.6751 15.2207 6.12866 15.8005 6.12866Z" fill="#81B3D2"/>
<path d="M24.1995 6.12866C24.7793 6.12866 25.2493 5.6751 25.2493 5.1156C25.2493 4.5561 24.7793 4.10254 24.1995 4.10254C23.6196 4.10254 23.1496 4.5561 23.1496 5.1156C23.1496 5.6751 23.6196 6.12866 24.1995 6.12866Z" fill="#81B3D2"/>
</symbol>
<symbol viewBox="0 0 27 27" id="icon-mapmarker">
<path d="M13.5 27C20.9558 27 27 20.9558 27 13.5C27 6.04416 20.9558 0 13.5 0C6.04416 0 0 6.04416 0 13.5C0 20.9558 6.04416 27 13.5 27Z" fill="white"/>
<path d="M13.5 21.8996C18.1392 21.8996 21.9 18.1388 21.9 13.4996C21.9 8.86042 18.1392 5.09961 13.5 5.09961C8.86078 5.09961 5.09998 8.86042 5.09998 13.4996C5.09998 18.1388 8.86078 21.8996 13.5 21.8996Z" fill="#81B3D3"/>
</symbol>
<symbol viewBox="0 0 18 15" id="icon-twitter">
<path d="M11.3 0.166728C13 -0.333272 14.4 0.366728 15 1.26673C15.7 1.06673 16.4 0.766728 17.1 0.566728C17.1 1.36673 16.6 2.06673 16.2 2.26673C16.9 2.46673 17.5 1.76673 17.5 1.76673C17.3 2.76673 16.5 3.46673 15.9 3.76673C15.7 10.3667 12.6 14.7667 5.5 14.5667C5 14.5667 5.6 14.5667 5 14.5667C4.6 14.5667 0.7 14.1667 0 12.7667C2.3 12.9667 4 12.3667 4.8 11.6667C3.8 11.3667 2 11.1667 1.7 8.76673C2.1 8.86673 2.3 8.96673 3 8.86673C1.8 8.06673 0.4 7.36673 0.5 5.16673C0.8 5.46673 1.6 5.66673 1.9 5.66673C1.2 5.46673 -0.1 2.36673 1 0.866728C2.9 2.66673 4.8 4.36673 8.4 4.56673C8.5 2.26673 9.5 0.766728 11.3 0.166728Z" fill="white"/>
</symbol>
<symbol viewBox="0 0 9 19" id="icon-facebook">
<path d="M6.3 3.4C7.1 3.4 7.9 3.4 8.7 3.4C8.7 2.3 8.7 1.2 8.7 0C7.7 0 6.8 0 5.8 0C2.7 0.2 1.5 2.4 1.9 6.1H0V9.6H2C2 12.7 2 15.8 2 18.9C3.3 18.9 4.6 18.9 5.8 18.9C5.8 15.8 5.8 12.7 5.8 9.6H8.7V6.1H5.8C5.8 5.1 5.8 3.7 6.3 3.4Z" fill="white"/>
</symbol>
<symbol viewBox="0 0 20 14" id="icon-youtube">
<path d="M17.1 0H2.8C1.3 0 0 1.3 0 2.8V11.1C0 12.7 1.3 14 2.8 14H17.1C18.7 14 19.9 12.7 19.9 11.2V2.8C20 1.3 18.7 0 17.1 0ZM7 10.4V3.6L13.8 7L7 10.4Z" fill="white"/>
</symbol>
<symbol viewBox="0 0 280 1" id="icon-line">
<rect width="280" height="1" fill="#D6D6D6"/>
</symbol>
<symbol viewBox="0 0 280 1" id="icon-line">
<rect width="280" height="1" fill="#D6D6D6"/>
</symbol>
<symbol viewBox="0 0 229 39" id="icon-text">
<path d="M27.3156 26.6366C27.3156 26.8879 27.2655 27.0889 27.2655 27.2899C27.0149 29.3003 26.3633 31.2603 25.3108 33.0696C24.2583 34.8789 22.8048 36.2861 21.0506 37.2912C20.399 37.5928 19.6973 37.8441 18.9956 38.0954C18.2939 38.2964 17.5923 38.4974 16.8906 38.6482C16.2891 38.7487 15.7378 38.8492 15.1364 38.8995C14.5349 38.9497 13.9836 39 13.4323 39C13.332 39 13.2318 39 13.1315 39C13.0313 39 12.9311 39 12.8308 39C10.5253 38.8995 8.21974 38.3969 5.96432 37.442C3.75903 36.4369 1.75421 35.1804 0 33.5722L4.6612 26.0838C4.71132 26.134 4.71132 26.134 4.76144 26.1843C4.76144 26.1843 4.81156 26.2345 4.86168 26.2848C5.9142 27.4407 7.11709 28.5464 8.42022 29.5013C9.72335 30.4562 11.2771 31.009 12.9812 31.1095C13.0313 31.1095 13.0814 31.1095 13.1315 31.1598C13.1817 31.1598 13.2318 31.2101 13.2819 31.2101C13.332 31.2101 13.3821 31.2101 13.4323 31.2603C13.4824 31.2603 13.5325 31.3106 13.5826 31.3106C13.733 31.3106 13.8833 31.3106 14.0838 31.2603C14.2342 31.2603 14.4347 31.2101 14.585 31.1598C15.1865 31.0593 15.7879 30.808 16.3392 30.4562C16.8906 30.1044 17.3417 29.7023 17.6424 29.1495C17.6925 29.049 17.7426 28.9987 17.7426 28.8982C17.7927 28.7977 17.8429 28.7474 17.8429 28.6469C17.9431 28.3956 17.9932 28.1443 17.9932 27.893C18.0433 27.6418 18.0433 27.4407 18.0433 27.2397C18.0433 26.1843 17.5923 25.2796 16.6901 24.576C15.7879 23.8724 14.7855 23.3196 13.733 22.9175C13.2819 22.7668 12.8809 22.616 12.5301 22.5155C12.1291 22.4149 11.7783 22.3144 11.4274 22.2642C11.3773 22.2642 11.3272 22.2642 11.3272 22.2139C11.2771 22.2139 11.227 22.1637 11.227 22.1637C9.32239 21.7113 7.51806 20.9575 5.86408 19.9021C4.21011 18.8466 3.05734 17.3892 2.40578 15.4291C2.30554 15.0271 2.2053 14.625 2.10506 14.2229C2.00482 13.7706 1.95469 13.3686 1.90457 12.866C1.85445 12.7152 1.85445 12.5644 1.85445 12.4137C1.85445 12.2629 1.85445 12.1121 1.85445 11.9613C1.85445 11.6598 1.85445 11.3582 1.90457 11.0064C1.90457 10.7049 1.95469 10.4033 2.05494 10.0515C2.15518 9.29768 2.35566 8.49356 2.65638 7.73969C2.90698 6.98582 3.25782 6.28222 3.70891 5.62887C4.96192 3.5683 6.56577 2.11082 8.52046 1.20619C10.3749 0.45232 12.4299 0 14.5349 0C15.0361 0 15.5373 0.0502577 16.0886 0.100515C16.5898 0.150773 17.1412 0.251289 17.6925 0.301546C19.0959 0.552835 20.4992 0.904639 21.8525 1.45747C23.2057 2.01031 24.5089 2.66366 25.6616 3.36727L22.4539 10.5541C21.4014 9.80026 20.2988 9.09665 19.146 8.49356C17.9932 7.89046 16.7402 7.63917 15.387 7.63917C15.2867 7.63917 15.2366 7.63917 15.1364 7.63917C15.0361 7.63917 14.986 7.63917 14.8858 7.63917C13.9836 7.73969 13.1817 8.14175 12.3797 8.84536C11.6279 9.54897 11.227 10.2526 11.227 11.0567C11.227 11.1572 11.227 11.308 11.2771 11.4085C11.2771 11.509 11.3272 11.6598 11.4274 11.7603C11.5277 12.0116 11.6279 12.2629 11.8284 12.5142C12.0289 12.7655 12.2294 12.9665 12.48 13.1675C12.9311 13.5193 13.5325 13.8209 14.3344 14.1224C15.1364 14.424 15.9884 14.6753 16.8906 14.9768C17.6424 15.1778 18.3441 15.3789 19.0457 15.5296C19.7474 15.6804 20.3489 15.8814 20.8 16.0322C22.9551 16.7861 24.6091 18.0928 25.7118 19.9021C26.8144 21.7113 27.3657 23.6211 27.4158 25.6314C27.4158 25.732 27.4158 25.7822 27.4158 25.7822C27.4158 25.8325 27.4158 25.8827 27.4158 25.8827C27.3657 26.134 27.3657 26.3853 27.3156 26.6366ZM57.3878 29.7526V38.0954H34.6332V0.904639H57.3878V9.04639H44.6071V15.5296H56.636V23.4704H44.6071V29.7526H57.3878ZM95.78 28.2951C94.5772 30.8582 92.8731 32.9691 90.6176 34.5773C88.8133 35.8338 86.8085 36.6881 84.7034 37.1405C82.5483 37.5928 80.3931 37.8943 78.2379 37.9948C77.6365 38.0451 76.9849 38.0451 76.3835 38.0451C75.782 38.0451 75.1806 38.0451 74.6292 38.0451H64.4548V0.854381H75.2808C75.8822 0.854381 76.4336 0.854381 77.035 0.854381C77.6365 0.854381 78.2379 0.854381 78.7892 0.904639C80.8943 1.00515 82.9492 1.3067 85.0042 1.75902C87.0591 2.21134 88.9136 3.06572 90.6176 4.32217C92.7728 5.8299 94.4769 7.84021 95.6798 10.3531C96.8827 12.866 97.5844 15.4291 97.7347 18.0425C97.7849 18.2938 97.7849 18.4948 97.7849 18.7461C97.7849 18.9974 97.7849 19.1985 97.7849 19.4497C97.7849 19.5503 97.7849 19.701 97.7849 19.8518C97.7849 20.0026 97.7849 20.1031 97.7849 20.2539C97.6345 23.0683 96.9829 25.732 95.78 28.2951ZM87.5603 19.0979C87.5603 18.9472 87.5603 18.7964 87.5102 18.6456C87.4099 17.1881 87.0591 15.7307 86.4576 14.3737C85.8562 13.0168 85.0042 11.9111 83.9015 11.0567C83.0996 10.4033 82.1974 9.95103 81.195 9.69974C80.1926 9.44845 79.1902 9.34794 78.1377 9.29768C77.9372 9.29768 77.7367 9.29768 77.5362 9.29768C77.3357 9.29768 77.1353 9.29768 76.9348 9.29768H74.3786V29.8028C74.4789 29.8028 74.6292 29.8028 74.7796 29.8531C74.93 29.8531 75.0302 29.9033 75.1806 29.9033C75.3309 29.9033 75.4813 29.9033 75.5815 29.9536C75.6818 29.9536 75.8321 30.0039 75.9324 30.0039C76.3333 30.0039 76.7343 30.0039 77.1353 29.9536C77.5863 29.9536 77.9873 29.9034 78.3382 29.8531C79.3406 29.7526 80.343 29.6018 81.2952 29.3505C82.2475 29.0992 83.1497 28.6469 83.9015 28.1443C85.1545 27.2397 86.0567 26.0335 86.6581 24.4755C87.2596 22.9175 87.5603 21.3093 87.5603 19.6508C87.5603 19.3995 87.5603 19.2487 87.5603 19.0979ZM142.492 21.058C142.492 21.4601 142.442 21.8621 142.342 22.2642C142.242 23.0683 142.141 23.8724 141.891 24.6765C141.69 25.4807 141.39 26.2848 141.089 27.0387C139.435 30.808 136.929 33.7229 133.471 35.8338C130.012 37.8943 126.404 38.9497 122.594 38.9497C122.344 38.9497 122.043 38.9497 121.793 38.8995C121.542 38.8995 121.291 38.8492 120.991 38.8492C119.687 38.7487 118.384 38.4974 117.081 38.1456C115.778 37.7938 114.525 37.2912 113.322 36.6881C110.064 34.9794 107.508 32.5168 105.654 29.3505C103.799 26.1843 102.847 22.8673 102.847 19.4497C102.847 18.9472 102.847 18.4446 102.897 17.942C102.947 17.4394 102.997 16.8866 103.148 16.384C103.348 15.3789 103.599 14.3737 103.95 13.3183C104.3 12.3131 104.701 11.308 105.253 10.3531C107.057 7.03608 109.513 4.5232 112.721 2.76418C115.878 1.00515 119.236 0.150773 122.695 0.150773C123.146 0.150773 123.647 0.150773 124.098 0.201031C124.599 0.251289 125.05 0.301546 125.501 0.301546C126.955 0.502577 128.358 0.854381 129.762 1.35696C131.165 1.85954 132.518 2.51289 133.821 3.31701C136.578 5.12629 138.733 7.4884 140.237 10.4536C141.74 13.4188 142.492 16.5348 142.492 19.7513C142.492 20.2539 142.492 20.6559 142.492 21.058ZM132.368 18.9472C132.368 18.6959 132.318 18.4948 132.318 18.2436C132.117 16.5851 131.616 14.9768 130.814 13.4188C130.012 11.8608 128.859 10.6546 127.456 9.80026C127.055 9.59923 126.704 9.44845 126.303 9.29768C125.902 9.14691 125.552 8.99613 125.151 8.89562C124.75 8.7951 124.399 8.74484 123.998 8.69459C123.597 8.64433 123.246 8.59407 122.845 8.59407C120.89 8.59407 119.036 9.19716 117.382 10.4536C115.728 11.7101 114.525 13.3686 113.873 15.4291C113.823 15.5296 113.823 15.5799 113.773 15.6804C113.773 15.7809 113.723 15.8312 113.723 15.9317C113.623 16.2835 113.523 16.6353 113.422 16.9871C113.322 17.3389 113.272 17.741 113.172 18.143C113.122 18.3943 113.122 18.6959 113.072 18.9472C113.072 19.1985 113.021 19.4497 113.021 19.7513C113.021 19.9021 113.021 20.0528 113.021 20.2036C113.021 20.3544 113.021 20.5052 113.072 20.6559C113.172 22.7165 113.823 24.6765 114.976 26.5361C116.129 28.3956 117.683 29.6018 119.738 30.2049C119.988 30.3054 120.189 30.3557 120.439 30.4059C120.69 30.4562 120.94 30.5064 121.191 30.5567C121.442 30.607 121.642 30.607 121.893 30.6572C122.143 30.6572 122.344 30.7075 122.594 30.7075C124.649 30.7075 126.504 30.1044 128.158 28.8479C129.812 27.6418 131.015 25.9832 131.716 23.9227C131.817 23.5206 131.917 23.1186 132.017 22.7165C132.117 22.2642 132.167 21.8621 132.218 21.4098C132.268 21.1585 132.268 20.857 132.318 20.6057C132.318 20.3544 132.368 20.1031 132.368 19.8518C132.368 19.4497 132.368 19.1985 132.368 18.9472ZM176.223 38.0954L162.139 18.8969C161.738 18.4446 161.388 17.8918 161.037 17.2384C160.686 16.5851 160.335 15.9317 160.034 15.2281C159.784 14.7255 159.583 14.2229 159.383 13.7204C159.182 13.2178 158.982 12.7655 158.781 12.3634C158.982 13.5696 159.132 14.7758 159.232 16.0322C159.333 17.2887 159.383 18.5451 159.383 19.7513V38.0954H149.609V0.904639H159.383L173.366 20.0026C173.717 20.5554 174.068 21.1082 174.369 21.7113C174.72 22.3144 175.02 22.9175 175.321 23.5709C175.572 24.0735 175.772 24.576 176.023 25.0786C176.273 25.5812 176.474 26.0838 176.724 26.5361C176.674 26.0838 176.624 25.6817 176.574 25.3299C176.524 24.9278 176.474 24.5258 176.424 24.1237C176.323 23.3698 176.273 22.5657 176.273 21.7113C176.223 20.9072 176.223 20.0528 176.223 19.1985V0.954897H185.947V38.1456H176.223V38.0954ZM218.876 38.0954L217.021 31.4111H202.687L200.782 38.1456H190.758L203.489 0.954897H216.119L229 38.1456H218.876V38.0954ZM211.107 11.9111C210.907 11.308 210.706 10.7049 210.556 10.0515C210.405 9.3982 210.255 8.7951 210.105 8.14175C210.004 7.89046 209.954 7.68943 209.954 7.4884C209.904 7.28737 209.854 7.08634 209.854 6.88531C209.804 7.08634 209.754 7.28737 209.704 7.4884C209.654 7.68943 209.603 7.94072 209.553 8.14175C209.503 8.24227 209.503 8.29253 209.503 8.34278C209.503 8.39304 209.503 8.49356 209.453 8.54381C209.353 9.14691 209.202 9.69974 209.052 10.2526C208.902 10.8054 208.751 11.3582 208.601 11.9111L204.842 24.2242H214.916L211.107 11.9111Z" fill="white"/>
</symbol>
<symbol viewBox="0 0 319 1" id="icon-line 1">
<rect x="-1" width="320" height="1" fill="#E5E5E5"/>
</symbol>
<symbol viewBox="0 0 320 1" id="icon-line 2">
<rect width="320" height="1" fill="#E5E5E5"/>
</symbol>
<symbol viewBox="0 0 320 1" id="icon-line 3">
<rect width="320" height="1" fill="#E5E5E5"/>
</symbol>
<symbol viewBox="0 0 18 18" id="icon-phone">
<path d="M3.6 7.8C5 10.6 7.4 12.9 10.2 14.4L12.4 12.2C12.7 11.9 13.1 11.8 13.4 12C14.5 12.4 15.7 12.6 17 12.6C17.6 12.6 18 13 18 13.6V17C18 17.6 17.6 18 17 18C7.6 18 0 10.4 0 1C0 0.4 0.4 0 1 0H4.5C5.1 0 5.5 0.4 5.5 1C5.5 2.2 5.7 3.4 6.1 4.6C6.2 4.9 6.1 5.3 5.9 5.6L3.6 7.8Z" fill="#010101"/>
</symbol>
<symbol viewBox="0 0 16 12" id="icon-mail">
<path d="M8 8C7.7 8 7.5 7.9 7 7.7L0 4V11C0 11.5 0.5 12 1 12H15C15.5 12 16 11.5 16 11V4L9 7.7C8.5 7.9 8.3 8 8 8ZM15 0H1C0.5 0 0 0.5 0 1V1.8L8 6L16 1.8V1C16 0.5 15.5 0 15 0Z" fill="black"/>
</symbol>
<symbol viewBox="0 0 319 1" id="icon-line 4">
<rect x="-1" width="320" height="1" fill="#E5E5E5"/>
</symbol>
<symbol viewBox="0 0 320 1" id="icon-line 5">
<rect width="320" height="1" fill="#E5E5E5"/>
</symbol>
<symbol viewBox="0 0 320 1" id="icon-line 6">
<rect width="320" height="1" fill="#E5E5E5"/>
</symbol>
<symbol viewBox="0 0 23 21" id="icon-like">
<path opacity="0.3" d="M12.9636 3.78L12.3364 6.825L11.7091 9.45H14.3227H20.8045V11.55C20.8045 11.55 20.8045 11.55 20.8045 11.655L17.7727 18.9H8.36364V8.4L12.9636 3.78ZM2.09091 10.5V18.9V10.5ZM13.8 0L6.9 6.93C6.48182 7.245 6.27273 7.77 6.27273 8.4V18.9C6.27273 20.055 7.21364 21 8.36364 21H17.7727C18.6091 21 19.3409 20.475 19.6545 19.74L22.7909 12.285C22.8955 12.075 22.8955 11.76 22.8955 11.55V9.45H23C23 8.295 22.0591 7.35 20.9091 7.35H14.3227L15.3682 2.52V2.205C15.3682 1.785 15.1591 1.365 14.95 1.05L13.8 0ZM4.18182 8.4H0V21H4.18182V8.4Z" fill="black"/>
</symbol>
<symbol viewBox="0 0 320 1" id="icon-line 7">
<rect width="320" height="1" fill="#E5E5E5"/>
</symbol>

<symbol viewBox="0 0 320 1" id="icon-line 8">
<rect width="320" height="1" fill="#E5E5E5"/>
</symbol>

<symbol viewBox="0 0 320 1" id="icon-line 9">
<rect width="320" height="1" fill="#E5E5E5"/>
</symbol>

<symbol viewBox="0 0 320 1" id="icon-line 10">
<rect width="320" height="1" fill="#E5E5E5"/>
</symbol>

<symbol viewBox="0 0 16 20" id="icon-replay">
<path d="M8 4V0L3 5L8 10V6C11.3 6 14 8.7 14 12C14 15.3 11.3 18 8 18C4.7 18 2 15.3 2 12H0C0 16.4 3.6 20 8 20C12.4 20 16 16.4 16 12C16 7.6 12.4 4 8 4Z" fill="#5C6870"/>
</symbol>

<symbol viewBox="0 0 32 20" id="icon-subtitles">
<path d="M29 0H3C1.3 0 0 1.3 0 3V17C0 18.7 1.3 20 3 20H29C30.7 20 32 18.7 32 17V3C32 1.3 30.7 0 29 0ZM14.4 15.9C13.9 16 13.3 16 12.7 16C12 16 11.3 15.9 10.7 15.7C10.1 15.5 9.5 15.1 9.1 14.7C8.7 14.3 8.3 13.6 8 12.8C7.7 12 7.6 11.1 7.6 10C7.6 8.9 7.8 7.9 8.1 7.1C8.4 6.3 8.8 5.7 9.3 5.2C9.8 4.7 10.4 4.4 11 4.2C11.5 4.1 12.2 4 12.8 4C13.5 4 14 4 14.5 4.1C15 4.2 15.3 4.3 15.6 4.4L15.2 6.3C14.9 6.2 14.6 6.1 14.3 6C13.9 6 13.5 6 13 6C12.1 6 11.4 6.3 10.8 7C10.2 7.7 10 8.7 10 10C10 10.6 10.1 11.1 10.2 11.6C10.3 12.1 10.5 12.5 10.8 12.9C11.1 13.2 11.4 13.5 11.8 13.7C12.2 13.9 12.7 14 13.2 14C13.7 14 14.1 14 14.5 13.9C14.8 13.8 15.1 13.7 15.4 13.5L15.9 15.3C15.4 15.6 14.9 15.7 14.4 15.9ZM23.1 15.9C22.6 16 22 16 21.4 16C20.7 16 20 15.9 19.4 15.7C18.8 15.5 18.2 15.1 17.8 14.7C17.3 14.2 16.9 13.6 16.7 12.8C16.4 12 16.3 11.1 16.3 10C16.3 8.9 16.5 7.9 16.8 7.1C17.1 6.3 17.5 5.7 18 5.2C18.5 4.7 19.1 4.4 19.7 4.2C20.2 4.1 20.9 4 21.5 4C22.2 4 22.7 4 23.2 4.1C23.7 4.2 24 4.3 24.3 4.4L23.9 6.3C23.6 6.2 23.3 6.1 23 6C22.6 6 22.2 6 21.7 6C20.8 6 20.1 6.3 19.5 7C18.9 7.7 18.7 8.7 18.7 10C18.7 10.6 18.8 11.1 18.9 11.6C19 12.1 19.2 12.5 19.5 12.9C19.8 13.2 20.1 13.5 20.5 13.7C20.9 13.9 21.4 14 21.9 14C22.4 14 22.8 14 23.2 13.9C23.5 13.8 23.8 13.7 24.1 13.5L24.6 15.3C24.1 15.6 23.6 15.7 23.1 15.9Z" fill="#5C6870"/>
</symbol>

<symbol viewBox="0 0 20 20" id="icon-fullscreen">
<path d="M0 0V3V6H3V3H6V0H3H0Z" fill="#5C6870"/>
<path d="M3 14H0V17V20H3H6V17H3V14Z" fill="#5C6870"/>
<path d="M17 0H14V3H17V6H20V3V0H17Z" fill="#5C6870"/>
<path d="M17 17H14V20H17H20V17V14H17V17Z" fill="#5C6870"/>
</symbol>
</svg>